PathFileType	4	(X/Y/Z)	G:\GRF\jawan data\CompiledGRF\03. Mohit Kumar\0231~ac~Walking 07_markers.trc
DataRate	CameraRate	NumFrames	NumMarkers	Units	OrigDataRate	OrigDataStartFrame	OrigNumFrames
100.000000	100.000000	9	18	mm	100.000000	719	959
Frame#	Time	c7			r should			l should			sacrum			r asis			r bar 1			r knee 1			r bar 2			r mall			r heel			r met			l asis			l bar 1			l knee 1			l bar 2			l mall			l heel			l met			
		X1	Y1	Z1	X2	Y2	Z2	X3	Y3	Z3	X4	Y4	Z4	X5	Y5	Z5	X6	Y6	Z6	X7	Y7	Z7	X8	Y8	Z8	X9	Y9	Z9	X10	Y10	Z10	X11	Y11	Z11	X12	Y12	Z12	X13	Y13	Z13	X14	Y14	Z14	X15	Y15	Z15	X16	Y16	Z16	X17	Y17	Z17	X18	Y18	Z18	

720	7.19	1901.193603515625	1490.080932617188	242.9776763916016	1954.75927734375	1446.902954101563	404.7626953125	1945.720458984375	1455.000854492188	79.40184783935547	nan	nan	nan	2005.3701171875	1004.481811523438	346.5843200683594	2034.029663085938	595.1829223632813	415.6969909667969	2062.567138671875	516.2091064453125	359.3280334472656	2036.140869140625	188.8305358886719	382.0801391601563	2044.233032226563	66.24938201904297	319.3243713378906	1984.992065429688	31.8811092376709	273.9266662597656	2188.690185546875	33.17185211181641	313.7448120117188	1976.81201171875	992.4632568359375	101.1271133422852	1910.836059570313	570.11474609375	20.02101707458496	1926.336547851563	473.9535217285156	65.33376312255859	1695.938598632813	312.6447143554688	34.05371856689453	1571.352783203125	197.1742553710938	107.5452041625977	1514.913208007813	236.9597778320313	159.9560394287109	1594.80419921875	58.653564453125	150.5107116699219	
721	7.2	1910.475219726563	1491.501586914063	243.9908752441406	1965.2294921875	1447.80224609375	405.4704284667969	1954.97412109375	1456.052612304688	80.18144989013672	nan	nan	nan	2016.230102539063	1005.279663085938	346.8038330078125	2040.309936523438	595.49658203125	416.0596008300781	2067.423828125	516.1627807617188	359.7174377441406	2036.860229492188	189.0240631103516	381.8468017578125	2044.449096679688	66.33486175537109	319.0464782714844	1986.103515625	31.5887336730957	273.7493286132813	2189.002685546875	32.82607650756836	313.8023681640625	1986.981567382813	993.8801879882813	100.8386764526367	1929.196166992188	571.452880859375	20.55886268615723	1949.060791015625	475.3261413574219	65.06893157958984	1717.26123046875	318.0038757324219	33.17902374267578	1589.665405273438	205.0988922119141	106.5984802246094	1534.6123046875	245.6508941650391	159.2437133789063	1611.455078125	65.12370300292969	146.3385467529297	
722	7.21	1920.598510742188	1492.745849609375	244.9420318603516	1975.674072265625	1448.72216796875	406.103515625	1963.980712890625	1457.149169921875	80.87179565429688	nan	nan	nan	2026.71240234375	1006.205810546875	347.1712951660156	2046.880249023438	596.0272216796875	416.6077880859375	2072.0751953125	515.9432983398438	360.2286376953125	2037.419555664063	189.2285919189453	381.716064453125	2044.690551757813	66.42950439453125	318.8978576660156	1986.57666015625	31.47981262207031	273.4928588867188	2189.2001953125	32.51147079467773	314.0062561035156	1997.046142578125	995.3992919921875	100.9578628540039	1947.529418945313	573.41552734375	21.3526496887207	1971.513305664063	477.4516906738281	64.83350372314453	1738.570190429688	322.9363708496094	32.54235076904297	1608.343139648438	212.5474853515625	105.9400100708008	1554.41259765625	251.7784271240234	159.9544677734375	1631.355712890625	71.61124420166016	140.9345092773438	
723	7.22	1929.874877929688	1494.066040039063	245.6851959228516	1986.121826171875	1449.668212890625	406.6924743652344	1973.047119140625	1458.359375	81.46092224121094	nan	nan	nan	2036.870727539063	1007.245422363281	347.7799072265625	2052.966552734375	596.3075561523438	417.1152038574219	2076.48193359375	515.5859375	360.7255859375	2038.087158203125	189.4095611572266	381.7272644042969	2044.951904296875	66.46352386474609	318.7828063964844	1987.744873046875	31.22320556640625	273.3062438964844	2189.464111328125	32.39194488525391	314.2815856933594	2007.236450195313	997.091796875	101.4196319580078	1966.009887695313	575.6615600585938	22.24063873291016	1993.842651367188	480.1983947753906	64.5465087890625	1760.19287109375	327.809326171875	32.21252822875977	1628.090087890625	219.0057983398438	105.6245727539063	1574.390014648438	255.7936859130859	161.4286804199219	1653.795288085938	77.07450866699219	135.4910736083984	
724	7.23	1939.894653320313	1495.293701171875	246.4857940673828	1996.514770507813	1450.609130859375	407.2215576171875	1981.801147460938	1459.594360351563	81.98599243164063	1848.666015625	1035.8251953125	242.0933990478516	2046.765747070313	1008.413330078125	348.6322631835938	2058.87158203125	596.6533203125	417.5648803710938	2080.794921875	515.3637084960938	361.1304321289063	2038.986938476563	189.4107666015625	381.9042663574219	2045.075439453125	66.44319152832031	318.7778015136719	1989.27001953125	30.88597106933594	273.3982543945313	2189.77197265625	32.32635879516602	314.6056518554688	2017.383544921875	998.9230346679688	102.5036544799805	1984.710815429688	577.9478759765625	22.86609268188477	2016.09521484375	483.2997741699219	64.3336181640625	1781.947875976563	332.3280944824219	32.19439315795898	1649.083740234375	223.9082183837891	105.4244155883789	1595.010009765625	258.1420593261719	162.8916168212891	1678.409545898438	81.71148681640625	130.3828887939453	
725	7.24	1950.157348632813	1496.47998046875	247.1643371582031	2006.984741210938	1451.669067382813	407.7201843261719	1990.9267578125	1461.1416015625	82.40232849121094	1856.133178710938	1037.306518554688	242.2910003662109	2056.33837890625	1009.631164550781	349.6860961914063	2064.1962890625	596.8785400390625	417.9263916015625	2084.891357421875	515.198486328125	361.4815368652344	2040.377319335938	189.3579406738281	382.1829528808594	2045.091430664063	66.350341796875	318.837646484375	1988.42138671875	31.27556991577148	273.3419189453125	2189.899169921875	32.0988883972168	314.8414001464844	2027.847534179688	1000.991088867188	104.0067367553711	2003.88818359375	580.3781127929688	23.13802719116211	2037.732543945313	486.359130859375	64.26487731933594	1803.844482421875	336.0514831542969	32.29366302490234	1671.215087890625	227.1893005371094	105.081428527832	1616.212280273438	258.988037109375	163.8485717773438	1704.257934570313	85.50521850585938	125.7770690917969	
726	7.25	1958.728393554688	1497.894165039063	247.6287384033203	2017.16357421875	1452.700317382813	408.1953735351563	1999.464477539063	1462.467529296875	82.84431457519531	1868.812133789063	1038.200805664063	242.5654144287109	2065.724853515625	1010.857604980469	350.9001770019531	2068.865966796875	597.006591796875	418.2625732421875	2088.52099609375	514.9655151367188	361.8165588378906	2042.179077148438	189.3564453125	382.5104370117188	2045.403930664063	66.46732330322266	318.9547119140625	1986.493286132813	32.01734161376953	273.331298828125	2190.06005859375	31.88335800170898	315.0005493164063	2038.376586914063	1003.330688476563	105.2122192382813	2023.470458984375	582.9783325195313	23.35086441040039	2059.032470703125	489.7651672363281	64.44920349121094	1825.675170898438	338.8494262695313	32.34168243408203	1694.0498046875	228.7682189941406	104.4733352661133	1637.950805664063	258.3689575195313	164.1393890380859	1731.105590820313	88.11451721191406	121.9718856811523	
727	7.26	1969.126953125	1499.123657226563	248.3647308349609	2027.510864257813	1453.924194335938	408.6183776855469	2008.424072265625	1463.9375	83.32365417480469	1881.103271484375	1039.436645507813	242.9337615966797	2074.92919921875	1012.116882324219	352.152587890625	2073.072509765625	597.2325439453125	418.5458374023438	2091.829833984375	514.9383544921875	362.1380004882813	2043.876220703125	189.4336090087891	382.7774658203125	2045.75634765625	66.654296875	319.1070861816406	1988.850341796875	31.27714157104492	273.4530639648438	2190.293701171875	31.70746994018555	315.1440124511719	2048.772705078125	1005.776550292969	106.3861694335938	2043.16259765625	585.7190551757813	23.34200859069824	2079.900390625	493.3717956542969	64.67385864257813	1847.7685546875	340.8863525390625	32.15653610229492	1717.293334960938	228.6769409179688	103.6265335083008	1660.9345703125	256.1238098144531	163.3201599121094	1759.09521484375	89.56336975097656	119.1837615966797	
728	7.27	1978.767944335938	1500.342651367188	249.0824432373047	2037.770751953125	1455.094604492188	408.9512329101563	2017.305908203125	1465.308959960938	83.7489013671875	1889.744018554688	1041.33154296875	243.0908660888672	2083.930419921875	1013.258483886719	353.4197082519531	2076.60888671875	597.27978515625	418.6708984375	2094.9892578125	515.0377197265625	362.45458984375	2045.202758789063	189.6016845703125	382.9736633300781	2045.9306640625	66.65242004394531	319.1695861816406	1988.521484375	31.51162719726563	273.4894714355469	2190.3916015625	31.45332717895508	315.3294372558594	2059.029296875	1008.098693847656	107.6114807128906	2062.97509765625	588.7305908203125	23.17947578430176	2100.38427734375	497.20703125	65.02739715576172	1869.38671875	341.872314453125	31.93682861328125	1741.364501953125	227.2713623046875	102.6808624267578	1684.05224609375	252.2589569091797	162.2083282470703	1788.7060546875	90.27970123291016	117.3462982177734	
